<svg xmlns="http://www.w3.org/2000/svg" version="1.1" xmlns:xlink="http://www.w3.org/1999/xlink" xmlns:svgjs="http://svgjs.com/svgjs" width="1440" height="1440" preserveAspectRatio="none" viewBox="0 0 1440 1440"><g mask="url(&quot;#SvgjsMask1375&quot;)" fill="none"><rect width="1440" height="1440" x="0" y="0" fill="rgba(254, 44, 85, 1)"></rect><path d="M10 518L638 -110" stroke-width="8" stroke="url(#SvgjsLinearGradient1376)" stroke-linecap="round" class="TopRight"></path><path d="M623 944L-185 1752" stroke-width="10" stroke="url(#SvgjsLinearGradient1376)" stroke-linecap="round" class="TopRight"></path><path d="M442 954L1243 153" stroke-width="6" stroke="url(#SvgjsLinearGradient1376)" stroke-linecap="round" class="TopRight"></path><path d="M303 931L785 449" stroke-width="10" stroke="url(#SvgjsLinearGradient1376)" stroke-linecap="round" class="TopRight"></path><path d="M352 249L1402 -801" stroke-width="10" stroke="url(#SvgjsLinearGradient1377)" stroke-linecap="round" class="BottomLeft"></path><path d="M556 1305L1210 651" stroke-width="10" stroke="url(#SvgjsLinearGradient1376)" stroke-linecap="round" class="TopRight"></path><path d="M697 978L102 1573" stroke-width="10" stroke="url(#SvgjsLinearGradient1376)" stroke-linecap="round" class="TopRight"></path><path d="M50 686L467 269" stroke-width="10" stroke="url(#SvgjsLinearGradient1376)" stroke-linecap="round" class="TopRight"></path><path d="M1029 431L77 1383" stroke-width="10" stroke="url(#SvgjsLinearGradient1377)" stroke-linecap="round" class="BottomLeft"></path><path d="M642 360L1619 -617" stroke-width="8" stroke="url(#SvgjsLinearGradient1377)" stroke-linecap="round" class="BottomLeft"></path><path d="M262 69L942 -611" stroke-width="10" stroke="url(#SvgjsLinearGradient1376)" stroke-linecap="round" class="TopRight"></path><path d="M781 866L349 1298" stroke-width="6" stroke="url(#SvgjsLinearGradient1376)" stroke-linecap="round" class="TopRight"></path><path d="M1386 308L2217 -523" stroke-width="6" stroke="url(#SvgjsLinearGradient1377)" stroke-linecap="round" class="BottomLeft"></path><path d="M1091 24L502 613" stroke-width="6" stroke="url(#SvgjsLinearGradient1377)" stroke-linecap="round" class="BottomLeft"></path><path d="M622 197L261 558" stroke-width="8" stroke="url(#SvgjsLinearGradient1376)" stroke-linecap="round" class="TopRight"></path><path d="M907 915L21 1801" stroke-width="6" stroke="url(#SvgjsLinearGradient1376)" stroke-linecap="round" class="TopRight"></path><path d="M457 775L1134 98" stroke-width="6" stroke="url(#SvgjsLinearGradient1376)" stroke-linecap="round" class="TopRight"></path><path d="M212 162L982 -608" stroke-width="8" stroke="url(#SvgjsLinearGradient1377)" stroke-linecap="round" class="BottomLeft"></path><path d="M1313 1044L532 1825" stroke-width="10" stroke="url(#SvgjsLinearGradient1376)" stroke-linecap="round" class="TopRight"></path><path d="M591 216L1534 -727" stroke-width="6" stroke="url(#SvgjsLinearGradient1377)" stroke-linecap="round" class="BottomLeft"></path><path d="M821 671L429 1063" stroke-width="8" stroke="url(#SvgjsLinearGradient1376)" stroke-linecap="round" class="TopRight"></path><path d="M766 1094L243 1617" stroke-width="8" stroke="url(#SvgjsLinearGradient1376)" stroke-linecap="round" class="TopRight"></path><path d="M1383 1030L964 1449" stroke-width="8" stroke="url(#SvgjsLinearGradient1377)" stroke-linecap="round" class="BottomLeft"></path><path d="M105 296L733 -332" stroke-width="6" stroke="url(#SvgjsLinearGradient1377)" stroke-linecap="round" class="BottomLeft"></path><path d="M1182 117L724 575" stroke-width="6" stroke="url(#SvgjsLinearGradient1376)" stroke-linecap="round" class="TopRight"></path><path d="M482 1423L1110 795" stroke-width="10" stroke="url(#SvgjsLinearGradient1376)" stroke-linecap="round" class="TopRight"></path><path d="M1252 1416L184 2484" stroke-width="10" stroke="url(#SvgjsLinearGradient1377)" stroke-linecap="round" class="BottomLeft"></path><path d="M1057 59L398 718" stroke-width="6" stroke="url(#SvgjsLinearGradient1377)" stroke-linecap="round" class="BottomLeft"></path><path d="M434 335L-353 1122" stroke-width="6" stroke="url(#SvgjsLinearGradient1377)" stroke-linecap="round" class="BottomLeft"></path><path d="M271 232L-385 888" stroke-width="8" stroke="url(#SvgjsLinearGradient1376)" stroke-linecap="round" class="TopRight"></path><path d="M670 617L250 1037" stroke-width="6" stroke="url(#SvgjsLinearGradient1377)" stroke-linecap="round" class="BottomLeft"></path><path d="M227 1138L-591 1956" stroke-width="8" stroke="url(#SvgjsLinearGradient1377)" stroke-linecap="round" class="BottomLeft"></path><path d="M176 600L706 70" stroke-width="6" stroke="url(#SvgjsLinearGradient1376)" stroke-linecap="round" class="TopRight"></path><path d="M1161 235L1868 -472" stroke-width="10" stroke="url(#SvgjsLinearGradient1377)" stroke-linecap="round" class="BottomLeft"></path><path d="M700 305L1583 -578" stroke-width="8" stroke="url(#SvgjsLinearGradient1377)" stroke-linecap="round" class="BottomLeft"></path><path d="M521 1130L-64 1715" stroke-width="8" stroke="url(#SvgjsLinearGradient1376)" stroke-linecap="round" class="TopRight"></path><path d="M981 536L1573 -56" stroke-width="6" stroke="url(#SvgjsLinearGradient1376)" stroke-linecap="round" class="TopRight"></path><path d="M1379 503L2115 -233" stroke-width="10" stroke="url(#SvgjsLinearGradient1377)" stroke-linecap="round" class="BottomLeft"></path><path d="M965 581L-89 1635" stroke-width="10" stroke="url(#SvgjsLinearGradient1377)" stroke-linecap="round" class="BottomLeft"></path><path d="M489 9L-187 685" stroke-width="6" stroke="url(#SvgjsLinearGradient1377)" stroke-linecap="round" class="BottomLeft"></path><path d="M1347 754L2342 -241" stroke-width="8" stroke="url(#SvgjsLinearGradient1377)" stroke-linecap="round" class="BottomLeft"></path><path d="M435 595L1046 -16" stroke-width="8" stroke="url(#SvgjsLinearGradient1377)" stroke-linecap="round" class="BottomLeft"></path><path d="M611 841L-307 1759" stroke-width="6" stroke="url(#SvgjsLinearGradient1376)" stroke-linecap="round" class="TopRight"></path><path d="M203 978L646 535" stroke-width="6" stroke="url(#SvgjsLinearGradient1376)" stroke-linecap="round" class="TopRight"></path><path d="M281 285L-100 666" stroke-width="10" stroke="url(#SvgjsLinearGradient1377)" stroke-linecap="round" class="BottomLeft"></path><path d="M756 1243L164 1835" stroke-width="10" stroke="url(#SvgjsLinearGradient1376)" stroke-linecap="round" class="TopRight"></path><path d="M774 165L1598 -659" stroke-width="8" stroke="url(#SvgjsLinearGradient1376)" stroke-linecap="round" class="TopRight"></path><path d="M192 980L-295 1467" stroke-width="10" stroke="url(#SvgjsLinearGradient1376)" stroke-linecap="round" class="TopRight"></path><path d="M506 1095L-28 1629" stroke-width="6" stroke="url(#SvgjsLinearGradient1376)" stroke-linecap="round" class="TopRight"></path><path d="M602 952L-115 1669" stroke-width="8" stroke="url(#SvgjsLinearGradient1376)" stroke-linecap="round" class="TopRight"></path><path d="M1151 1072L1710 513" stroke-width="6" stroke="url(#SvgjsLinearGradient1376)" stroke-linecap="round" class="TopRight"></path></g><defs><mask id="SvgjsMask1375"><rect width="1440" height="1440" fill="#ffffff"></rect></mask><linearGradient x1="0%" y1="100%" x2="100%" y2="0%" id="SvgjsLinearGradient1376"><stop stop-color="rgba(162, 88, 103, 0)" offset="0"></stop><stop stop-color="rgba(162, 88, 103, 1)" offset="1"></stop></linearGradient><linearGradient x1="100%" y1="0%" x2="0%" y2="100%" id="SvgjsLinearGradient1377"><stop stop-color="rgba(162, 88, 103, 0)" offset="0"></stop><stop stop-color="rgba(162, 88, 103, 1)" offset="1"></stop></linearGradient></defs></svg>