<svg width="100" height="100" viewBox="0 0 21 18" fill="none" xmlns="http://www.w3.org/2000/svg">
<path d="M17.8544 4.24016C17.642 3.86016 17.0256 3.95984 17.0178 4.43135C17.0126 4.74173 17.3691 5.0812 17.7755 5.4891C17.7914 5.50512 17.8123 5.5133 17.8332 5.51365C17.8541 5.51399 17.8753 5.50651 17.8917 5.49103C18.3131 5.0954 18.679 4.76953 18.6842 4.45907C18.6921 3.98597 18.0776 3.87023 17.8544 4.24016V4.24016Z" fill="#06962E"/>
<path d="M10.5 1.15089C10.3688 0.899942 10 0.97322 10 1.28761C10 1.49455 10.2172 1.71689 10.4651 1.98428C10.4748 1.99478 10.4874 2 10.5 2C10.5125 2 10.5251 1.99478 10.5348 1.98428C10.7837 1.71589 11 1.49461 11 1.28761C11 0.972164 10.6302 0.901831 10.5 1.15089Z" fill="#C2A50A"/>
<path d="M17.8333 3.22633C17.6147 2.84991 17 2.95983 17 3.43141C17 3.74183 17.3621 4.07533 17.7752 4.47641C17.7914 4.49216 17.8124 4.5 17.8333 4.5C17.8542 4.5 17.8752 4.49216 17.8914 4.47641C18.3062 4.07383 18.6667 3.74191 18.6667 3.43141C18.6667 2.95825 18.0503 2.85275 17.8333 3.22633Z" fill="#C2A50A"/>
<path d="M19.5 3.15089C19.3688 2.89994 19 2.97322 19 3.28761C19 3.49455 19.2173 3.71689 19.4652 3.98428C19.4749 3.99478 19.4875 4 19.5 4C19.5125 4 19.5252 3.99478 19.5349 3.98428C19.7837 3.71589 20 3.49461 20 3.28761C20 2.97216 19.6302 2.90183 19.5 3.15089Z" fill="#0F34B7" fill-opacity="0.9"/>
<path d="M11.6144 1.26498C11.6084 1.05264 11.3365 0.981905 11.2334 1.19434C11.1656 1.33417 11.2388 1.55524 11.3179 1.81674C11.321 1.827 11.3277 1.83463 11.3362 1.83873C11.3446 1.84282 11.3548 1.8434 11.3647 1.83946C11.62 1.73925 11.8379 1.66025 11.9058 1.52038C12.0091 1.30724 11.7835 1.13914 11.6144 1.26498V1.26498Z" fill="#06962E"/>
<path d="M10.8333 2.22633C10.6147 1.84991 10 1.95983 10 2.43141C10 2.74183 10.3621 3.07533 10.7753 3.47641C10.7914 3.49216 10.8124 3.5 10.8333 3.5C10.8543 3.5 10.8752 3.49216 10.8914 3.47641C11.3062 3.07383 11.6667 2.74191 11.6667 2.43141C11.6667 1.95825 11.0503 1.85275 10.8333 2.22633V2.22633Z" fill="#8E04A5"/>
<path d="M16.5 8.15089C16.3688 7.89994 16 7.97322 16 8.28761C16 8.49455 16.2173 8.71689 16.4652 8.98428C16.4749 8.99478 16.4875 9 16.5 9C16.5126 9 16.5251 8.99478 16.5348 8.98428C16.7837 8.71589 17 8.49461 17 8.28761C17 7.97216 16.6302 7.90183 16.5 8.15089V8.15089Z" fill="#0F34B7" fill-opacity="0.9"/>
<path d="M16.5438 1.11605C16.4606 0.826971 16.1289 0.870759 16.0894 1.21652C16.0634 1.44412 16.2255 1.71032 16.4087 2.02913C16.4159 2.04164 16.4263 2.04864 16.4373 2.04989C16.4482 2.05115 16.4599 2.04666 16.4697 2.03608C16.721 1.76574 16.9379 1.54397 16.9639 1.31631C17.0035 0.969386 16.6889 0.855133 16.5438 1.11605V1.11605Z" fill="#06962E"/>
<path d="M14 0.301774C13.7376 -0.200116 13 -0.0535599 13 0.575219C13 0.989109 13.4345 1.43378 13.9303 1.96856C13.9497 1.98956 13.9749 2 14 2C14.0251 2 14.0503 1.98956 14.0697 1.96856C14.5674 1.43178 15 0.98922 15 0.575219C15 -0.0556711 14.2604 -0.196338 14 0.301774Z" fill="#C2A50A"/>
<path d="M19.5 5.15089C19.3688 4.89994 19 4.97322 19 5.28761C19 5.49455 19.2173 5.71689 19.4652 5.98428C19.4749 5.99478 19.4875 6 19.5 6C19.5126 6 19.5251 5.99478 19.5348 5.98428C19.7837 5.71589 20 5.49461 20 5.28761C20 4.97216 19.6302 4.90183 19.5 5.15089V5.15089Z" fill="#8E04A5"/>
<path d="M6.29 6.36117C5.22062 6.35592 3.8775 6.89667 2.85313 7.85275C2.4625 8.21733 2.11813 8.64317 1.8525 9.12092C2.77688 8.46817 3.76312 8.26342 4.91687 8.86775C5.25687 8.0295 5.71062 7.17608 6.29 6.36117ZM12.4056 12.0621C11.4581 12.6402 10.5262 13.0572 9.72 13.3512C10.3675 14.4292 10.1487 15.3486 9.44875 16.2107C9.96062 15.9634 10.4169 15.642 10.8081 15.2762C11.8356 14.3184 12.4156 13.0619 12.4056 12.0621ZM16.2506 2.76025C15.9931 2.74392 15.7406 2.73575 15.4925 2.73575C10.1163 2.73575 7.05625 6.56125 5.9425 9.63833L8.8975 12.3969C12.29 11.2617 16.2831 8.51133 16.2831 3.54658C16.2831 3.2905 16.2725 3.02858 16.2506 2.76025ZM10.0706 8.54108C9.82625 8.313 9.82625 7.94433 10.0706 7.71625C10.315 7.48817 10.71 7.48817 10.9544 7.71625C11.1988 7.94433 11.1988 8.313 10.9544 8.54108C10.71 8.76917 10.3144 8.76858 10.0706 8.54108ZM11.8381 6.89142C11.35 6.43642 11.35 5.69733 11.8381 5.24175C12.3263 4.78617 13.1181 4.78617 13.6056 5.24175C14.0938 5.69733 14.0938 6.43583 13.6056 6.89142C13.1175 7.347 12.3263 7.347 11.8381 6.89142ZM2.51375 14.1562L1.9475 13.6277L5.2025 10.6014L5.76875 11.1299L2.51375 14.1562ZM5.62562 15.2395L5.05937 14.711L7.33188 12.5737L7.89812 13.1022L5.62562 15.2395ZM1.84938 16.7357L1.28313 16.2072L5.31312 12.4517L5.76875 13.1022L1.84938 16.7357Z" fill="#C50000"/>
</svg>

